# xmcd
# 
# Track frame offsets:
#     150
#     22970
#     48052
#     83355
#     102110
#     116835
#     142560
#     173057
#     201065
# 
# Disc length: 3019
# 
# Revision: 1
# Processed by: cddbd v1.5.2PL0 Copyright (c) Steve Scherf et al.
# Submitted via: BonkEnc v1.0.8
# 
DISCID=5c0bc909
DTITLE=Lee Konitz, Steve Swallow, Paul Motian - Three Guys
DYEAR=1998
DGENRE=Contemporary Jazz
TTITLE0=It's You
TTITLE1=Come Rain Or Come Shine
TTITLE2=Thingin'
TTITLE3=Luiza
TTITLE4=From Time To Time
TTITLE5=Ladies' Wader
TTITLE6=Johnny Broken Wing
TTITLE7=Eiderdown
TTITLE8=A Minor Blues In F
EXTD=YEAR: 1998
EXTT0=
EXTT1=
EXTT2=
EXTT3=
EXTT4=
EXTT5=
EXTT6=
EXTT7=
EXTT8=
PLAYORDER=
